# xmcd
#
# Track frame offsets: 
#        150
#        8942
#        17192
#        28447
#        41167
#        50062
#        62202
#        74012
#        84260
#        91757
#        101682
#        111837
#        119430
#        128475
#        139042
#        148200
#        155922
#        165577
#        174395
#        182197
#
# Disc length: 2569 seconds
#
# Revision: 3
# Processed by: cddbd v1.5.2PL0 Copyright (c) Steve Scherf et al.
# Submitted via: ExactAudioCopy v0.99pb5
#
DISCID=260a0714
DTITLE=Jim Reeves - Live At The Opry
DYEAR=1987
DGENRE=
TTITLE0=Yonder comes a sucker
TTITLE1=Waiting for a train
TTITLE2=Am I loosing you?
TTITLE3=When God dips his live in my heart
TTITLE4=According to my heart
TTITLE5=Four walls
TTITLE6=Mexican Joe
TTITLE7=Anna Marie
TTITLE8=Blue boy
TTITLE9=Softly and Tenderly
TTITLE10=He'll have to go
TTITLE11=Bimbo
TTITLE12=I'd like to be
TTITLE13=Peace in the Valley
TTITLE14=Billy Bayou
TTITLE15=In a mansion stands my love
TTITLE16=I'm getting better
TTITLE17=(Gimme that) Old time relegion
TTITLE18=I know one
TTITLE19=I missed me
EXTD=
EXTT0=
EXTT1=
EXTT2=
EXTT3=
EXTT4=
EXTT5=
EXTT6=
EXTT7=
EXTT8=
EXTT9=
EXTT10=
EXTT11=
EXTT12=
EXTT13=
EXTT14=
EXTT15=
EXTT16=
EXTT17=
EXTT18=
EXTT19=
PLAYORDER=
